<svg width="97" height="97" viewBox="0 0 97 97" fill="none" xmlns="http://www.w3.org/2000/svg">
<path d="M39.0623 68.6304L30.4828 59.9334L39.0623 51.3538L35.2427 47.4166L22.6671 59.9334L35.2427 72.5089L39.0623 68.6304Z" fill="white"/>
<path d="M66.3288 59.9334L57.7493 68.6304L61.5689 72.5089L74.1445 59.9334L61.5689 47.4166L57.7493 51.3538L66.3288 59.9334Z" fill="white"/>
<path d="M41.501 59.9628C41.501 58.4618 42.7619 57.2009 44.2629 57.2009C45.7639 57.2009 47.0247 58.4618 47.0247 59.9628C47.0247 61.4638 45.7639 62.7247 44.2629 62.7247C42.7619 62.7247 41.501 61.4638 41.501 59.9628Z" fill="white"/>
<path d="M49.787 59.9628C49.787 58.4618 51.0478 57.2009 52.5488 57.2009C54.0498 57.2009 55.3107 58.4618 55.3107 59.9628C55.3107 61.4638 54.0498 62.7247 52.5488 62.7247C51.0478 62.7247 49.787 61.4638 49.787 59.9628Z" fill="white"/>
<path fill-rule="evenodd" clip-rule="evenodd" d="M51.7547 23.5927C55.0275 22.2679 57.3361 19.0594 57.3361 15.3116C57.3361 10.3795 53.3379 6.38135 48.4059 6.38135C43.4739 6.38135 39.4757 10.3795 39.4757 15.3116C39.4757 19.0594 41.7843 22.2679 45.057 23.5927V28.7069H26.0803C18.0658 28.7069 11.5687 35.204 11.5687 43.2186V45.8394C5.1686 47.3512 0.405884 53.1008 0.405884 59.9627C0.405884 66.8247 5.1686 72.5743 11.5687 74.0861V76.7069C11.5687 84.7215 18.0658 91.2186 26.0803 91.2186H70.7315C78.746 91.2186 85.2431 84.7215 85.2431 76.7069V74.0861C91.6432 72.5743 96.4059 66.8247 96.4059 59.9627C96.4059 53.1008 91.6432 47.3512 85.2431 45.8394V43.2186C85.2431 35.204 78.746 28.7069 70.7315 28.7069H51.7547V23.5927ZM46.1733 15.3116C46.1733 14.0786 47.1729 13.079 48.4059 13.079C49.6389 13.079 50.6384 14.0786 50.6384 15.3116C50.6384 16.5446 49.6389 17.5441 48.4059 17.5441C47.1729 17.5441 46.1733 16.5446 46.1733 15.3116ZM7.10356 59.9627C7.10356 56.8457 8.92873 54.1548 11.5687 52.9008V67.0247C8.92873 65.7706 7.10356 63.0798 7.10356 59.9627ZM85.2431 67.0247C87.883 65.7706 89.7082 63.0798 89.7082 59.9627C89.7082 56.8457 87.883 54.1548 85.2431 52.9008V67.0247ZM26.0803 35.4046H70.7315C75.047 35.4046 78.5454 38.903 78.5454 43.2186V76.7069C78.5454 81.0225 75.047 84.5209 70.7315 84.5209H26.0803C21.7648 84.5209 18.2663 81.0225 18.2663 76.7069V43.2186C18.2663 38.903 21.7648 35.4046 26.0803 35.4046Z" fill="white"/>
</svg>
